<?xml version="1.0" encoding="UTF-8" standalone="no"?>
<!DOCTYPE svg PUBLIC "-//W3C//DTD SVG 1.1//EN"
 "http://www.w3.org/Graphics/SVG/1.1/DTD/svg11.dtd">
<!-- Generated by graphviz version 2.40.1 (20161225.0304)
 -->
<!-- Title: dependencies Pages: 1 -->
<svg width="836pt" height="284pt"
 viewBox="0.00 0.00 836.00 284.00" xmlns="http://www.w3.org/2000/svg" xmlns:xlink="http://www.w3.org/1999/xlink">
<g id="graph0" class="graph" transform="scale(1 1) rotate(0) translate(4 280)">
<title>dependencies</title>
<polygon fill="#ffffff" stroke="transparent" points="-4,4 -4,-280 832,-280 832,4 -4,4"/>
<text text-anchor="start" x="393.0091" y="-42.4" font-family="sans-serif" font-weight="bold" font-size="14.00" fill="#000000">Legend</text>
<polygon fill="#ffffb3" stroke="transparent" points="180,-10 180,-30 200,-30 200,-10 180,-10"/>
<text text-anchor="start" x="203.629" y="-15.4" font-family="sans-serif" font-size="14.00" fill="#000000"> &#160;Declarations</text>
<polygon fill="#8dd3c7" stroke="transparent" points="293,-10 293,-30 313,-30 313,-10 293,-10"/>
<text text-anchor="start" x="316.7251" y="-15.4" font-family="sans-serif" font-size="14.00" fill="#000000"> &#160;Module</text>
<polygon fill="#80b1d3" stroke="transparent" points="379,-10 379,-30 399,-30 399,-10 379,-10"/>
<text text-anchor="start" x="402.7812" y="-15.4" font-family="sans-serif" font-size="14.00" fill="#000000"> &#160;Bootstrap</text>
<polygon fill="#fdb462" stroke="transparent" points="476,-10 476,-30 496,-30 496,-10 476,-10"/>
<text text-anchor="start" x="499.6732" y="-15.4" font-family="sans-serif" font-size="14.00" fill="#000000"> &#160;Providers</text>
<polygon fill="#fb8072" stroke="transparent" points="572,-10 572,-30 592,-30 592,-10 572,-10"/>
<text text-anchor="start" x="595.7258" y="-15.4" font-family="sans-serif" font-size="14.00" fill="#000000"> &#160;Exports</text>
<g id="clust1" class="cluster">
<title>cluster_NgxFaceApiJsModule</title>
<polygon fill="none" stroke="#000000" stroke-dasharray="1,5" points="8,-70 8,-268 820,-268 820,-70 8,-70"/>
</g>
<g id="clust2" class="cluster">
<title>cluster_NgxFaceApiJsModule_declarations</title>
<polygon fill="none" stroke="#000000" points="16,-78 16,-130 812,-130 812,-78 16,-78"/>
</g>
<g id="clust8" class="cluster">
<title>cluster_NgxFaceApiJsModule_exports</title>
<polygon fill="none" stroke="#000000" points="106,-208 106,-260 722,-260 722,-208 106,-208"/>
</g>
<!-- DetectAllFacesImgDirective -->
<g id="node1" class="node">
<title>DetectAllFacesImgDirective</title>
<polygon fill="#ffffb3" stroke="#000000" points="804.4244,-122 627.5756,-122 627.5756,-86 804.4244,-86 804.4244,-122"/>
<text text-anchor="middle" x="716" y="-99.8" font-family="Times,serif" font-size="14.00" fill="#000000">DetectAllFacesImgDirective</text>
</g>
<!-- NgxFaceApiJsModule -->
<g id="node5" class="node">
<title>NgxFaceApiJsModule</title>
<polygon fill="#8dd3c7" stroke="#000000" points="490.9692,-187 487.9692,-191 466.9692,-191 463.9692,-187 349.0308,-187 349.0308,-151 490.9692,-151 490.9692,-187"/>
<text text-anchor="middle" x="420" y="-164.8" font-family="Times,serif" font-size="14.00" fill="#000000">NgxFaceApiJsModule</text>
</g>
<!-- DetectAllFacesImgDirective&#45;&gt;NgxFaceApiJsModule -->
<g id="edge1" class="edge">
<title>DetectAllFacesImgDirective&#45;&gt;NgxFaceApiJsModule</title>
<path fill="none" stroke="#000000" d="M670.875,-122.0225C670.875,-139.3734 670.875,-163 670.875,-163 670.875,-163 501.2196,-163 501.2196,-163"/>
<polygon fill="#000000" stroke="#000000" points="501.2197,-159.5001 491.2196,-163 501.2196,-166.5001 501.2197,-159.5001"/>
</g>
<!-- DetectAllFacesVideoDirective -->
<g id="node2" class="node">
<title>DetectAllFacesVideoDirective</title>
<polygon fill="#ffffb3" stroke="#000000" points="609.0855,-122 420.9145,-122 420.9145,-86 609.0855,-86 609.0855,-122"/>
<text text-anchor="middle" x="515" y="-99.8" font-family="Times,serif" font-size="14.00" fill="#000000">DetectAllFacesVideoDirective</text>
</g>
<!-- DetectAllFacesVideoDirective&#45;&gt;NgxFaceApiJsModule -->
<g id="edge2" class="edge">
<title>DetectAllFacesVideoDirective&#45;&gt;NgxFaceApiJsModule</title>
<path fill="none" stroke="#000000" d="M455.8461,-122.1061C455.8461,-122.1061 455.8461,-140.991 455.8461,-140.991"/>
<polygon fill="#000000" stroke="#000000" points="452.3461,-140.9909 455.8461,-150.991 459.3461,-140.991 452.3461,-140.9909"/>
</g>
<!-- DetectSingleFaceImgDirective -->
<g id="node3" class="node">
<title>DetectSingleFaceImgDirective</title>
<polygon fill="#ffffb3" stroke="#000000" points="402.8708,-122 213.1292,-122 213.1292,-86 402.8708,-86 402.8708,-122"/>
<text text-anchor="middle" x="308" y="-99.8" font-family="Times,serif" font-size="14.00" fill="#000000">DetectSingleFaceImgDirective</text>
</g>
<!-- DetectSingleFaceImgDirective&#45;&gt;NgxFaceApiJsModule -->
<g id="edge3" class="edge">
<title>DetectSingleFaceImgDirective&#45;&gt;NgxFaceApiJsModule</title>
<path fill="none" stroke="#000000" d="M375.8503,-122.1061C375.8503,-122.1061 375.8503,-140.991 375.8503,-140.991"/>
<polygon fill="#000000" stroke="#000000" points="372.3504,-140.9909 375.8503,-150.991 379.3504,-140.991 372.3504,-140.9909"/>
</g>
<!-- DetectionResultComponent -->
<g id="node4" class="node">
<title>DetectionResultComponent</title>
<polygon fill="#ffffb3" stroke="#000000" points="195.5322,-122 24.4678,-122 24.4678,-86 195.5322,-86 195.5322,-122"/>
<text text-anchor="middle" x="110" y="-99.8" font-family="Times,serif" font-size="14.00" fill="#000000">DetectionResultComponent</text>
</g>
<!-- DetectionResultComponent&#45;&gt;NgxFaceApiJsModule -->
<g id="edge4" class="edge">
<title>DetectionResultComponent&#45;&gt;NgxFaceApiJsModule</title>
<path fill="none" stroke="#000000" d="M154.6653,-122.0225C154.6653,-139.3734 154.6653,-163 154.6653,-163 154.6653,-163 338.8952,-163 338.8952,-163"/>
<polygon fill="#000000" stroke="#000000" points="338.8952,-166.5001 348.8952,-163 338.8951,-159.5001 338.8952,-166.5001"/>
</g>
<!-- DetectAllFacesImgDirective  -->
<g id="node6" class="node">
<title>DetectAllFacesImgDirective </title>
<polygon fill="#fb8072" stroke="#000000" points="714.4249,-252 533.5751,-252 533.5751,-216 714.4249,-216 714.4249,-252"/>
<text text-anchor="middle" x="624" y="-229.8" font-family="Times,serif" font-size="14.00" fill="#000000">DetectAllFacesImgDirective </text>
</g>
<!-- NgxFaceApiJsModule&#45;&gt;DetectAllFacesImgDirective  -->
<g id="edge5" class="edge">
<title>NgxFaceApiJsModule&#45;&gt;DetectAllFacesImgDirective </title>
<path fill="none" stroke="#000000" stroke-dasharray="5,2" d="M491.3327,-175C530.6375,-175 571.5402,-175 571.5402,-175 571.5402,-175 571.5402,-205.9775 571.5402,-205.9775"/>
<polygon fill="#000000" stroke="#000000" points="568.0402,-205.9774 571.5402,-215.9775 575.0402,-205.9775 568.0402,-205.9774"/>
</g>
<!-- DetectAllFacesVideoDirective  -->
<g id="node7" class="node">
<title>DetectAllFacesVideoDirective </title>
<polygon fill="#fb8072" stroke="#000000" points="516.085,-252 323.915,-252 323.915,-216 516.085,-216 516.085,-252"/>
<text text-anchor="middle" x="420" y="-229.8" font-family="Times,serif" font-size="14.00" fill="#000000">DetectAllFacesVideoDirective </text>
</g>
<!-- NgxFaceApiJsModule&#45;&gt;DetectAllFacesVideoDirective  -->
<g id="edge6" class="edge">
<title>NgxFaceApiJsModule&#45;&gt;DetectAllFacesVideoDirective </title>
<path fill="none" stroke="#000000" stroke-dasharray="5,2" d="M420,-187.1061C420,-187.1061 420,-205.991 420,-205.991"/>
<polygon fill="#000000" stroke="#000000" points="416.5001,-205.9909 420,-215.991 423.5001,-205.991 416.5001,-205.9909"/>
</g>
<!-- DetectSingleFaceImgDirective  -->
<g id="node8" class="node">
<title>DetectSingleFaceImgDirective </title>
<polygon fill="#fb8072" stroke="#000000" points="306.3704,-252 113.6296,-252 113.6296,-216 306.3704,-216 306.3704,-252"/>
<text text-anchor="middle" x="210" y="-229.8" font-family="Times,serif" font-size="14.00" fill="#000000">DetectSingleFaceImgDirective </text>
</g>
<!-- NgxFaceApiJsModule&#45;&gt;DetectSingleFaceImgDirective  -->
<g id="edge7" class="edge">
<title>NgxFaceApiJsModule&#45;&gt;DetectSingleFaceImgDirective </title>
<path fill="none" stroke="#000000" stroke-dasharray="5,2" d="M348.8343,-175C306.0689,-175 259.875,-175 259.875,-175 259.875,-175 259.875,-205.9775 259.875,-205.9775"/>
<polygon fill="#000000" stroke="#000000" points="256.3751,-205.9774 259.875,-215.9775 263.3751,-205.9775 256.3751,-205.9774"/>
</g>
</g>
</svg>
